<?xml version="1.0" encoding="utf-8"?>
<!-- Generator: Adobe Illustrator 27.8.1, SVG Export Plug-In . SVG Version: 6.00 Build 0)  -->
<svg version="1.1" id="Layer_1" xmlns="http://www.w3.org/2000/svg" xmlns:xlink="http://www.w3.org/1999/xlink" x="0px" y="0px"
	 viewBox="0 0 1366 768" style="enable-background:new 0 0 1366 768;" xml:space="preserve">
<style type="text/css">
	.st0{clip-path:url(#SVGID_00000078767348819252609930000002609256164051426995_);}
	.st1{clip-path:url(#SVGID_00000157302522949037458100000006422233908717141390_);}
	.st2{clip-path:url(#SVGID_00000029736699491969063200000015695611205768198047_);}
	.st3{clip-path:url(#SVGID_00000049938960447774815350000006695664881190064794_);}
	.st4{fill:#FFE9D5;}
	.st5{fill:none;stroke:#FDD4B7;stroke-width:2.9415;}
	.st6{fill:#FFFFFF;filter:url(#Adobe_OpacityMaskFilter);}
	.st7{mask:url(#mask1_70_109_00000147187417690020766210000014946066717598963894_);}
	.st8{fill:#9F3E15;}
</style>
<g>
	<defs>
		<rect id="SVGID_1_" x="615" y="319" width="119" height="119"/>
	</defs>
	<clipPath id="SVGID_00000173869374631683778130000010514117701045710520_">
		<use xlink:href="#SVGID_1_"  style="overflow:visible;"/>
	</clipPath>
	<g style="clip-path:url(#SVGID_00000173869374631683778130000010514117701045710520_);">
		<g>
			<defs>
				<rect id="SVGID_00000050630468571582816930000009499599733741752199_" x="615" y="319" width="119" height="119"/>
			</defs>
			<clipPath id="SVGID_00000045591245609678520790000007291515077110943133_">
				<use xlink:href="#SVGID_00000050630468571582816930000009499599733741752199_"  style="overflow:visible;"/>
			</clipPath>
			<g style="clip-path:url(#SVGID_00000045591245609678520790000007291515077110943133_);">
				<g>
					<defs>
						<rect id="SVGID_00000125593431044786068000000007738406388932653697_" x="615" y="319" width="119" height="119"/>
					</defs>
					<clipPath id="SVGID_00000137110973493809184630000010493781020981389710_">
						<use xlink:href="#SVGID_00000125593431044786068000000007738406388932653697_"  style="overflow:visible;"/>
					</clipPath>
					<g style="clip-path:url(#SVGID_00000137110973493809184630000010493781020981389710_);">
						<g>
							<defs>
								<rect id="SVGID_00000021824847270681361330000012688604406299000741_" x="615" y="319" width="119" height="119"/>
							</defs>
							<clipPath id="SVGID_00000059995121961569514380000017446460229092192184_">
								<use xlink:href="#SVGID_00000021824847270681361330000012688604406299000741_"  style="overflow:visible;"/>
							</clipPath>
							<g style="clip-path:url(#SVGID_00000059995121961569514380000017446460229092192184_);">
								<path class="st4" d="M715,320.5h-82.4c-8.9,0-16.2,7.2-16.2,16.2V419c0,8.9,7.2,16.2,16.2,16.2H715
									c8.9,0,16.2-7.2,16.2-16.2v-82.4C731.2,327.7,723.9,320.5,715,320.5z"/>
								<path class="st5" d="M715,320.5h-82.4c-8.9,0-16.2,7.2-16.2,16.2V419c0,8.9,7.2,16.2,16.2,16.2H715
									c8.9,0,16.2-7.2,16.2-16.2v-82.4C731.2,327.7,723.9,320.5,715,320.5z"/>
								<defs>
									<filter id="Adobe_OpacityMaskFilter" filterUnits="userSpaceOnUse" x="653.6" y="353.9" width="40.4" height="47.8">
										<feColorMatrix  type="matrix" values="1 0 0 0 0  0 1 0 0 0  0 0 1 0 0  0 0 0 1 0"/>
									</filter>
								</defs>
								
									<mask maskUnits="userSpaceOnUse" x="653.6" y="353.9" width="40.4" height="47.8" id="mask1_70_109_00000147187417690020766210000014946066717598963894_">
									<path class="st6" d="M703.2,348.4h-58.8v58.8h58.8V348.4z"/>
								</mask>
								<g class="st7">
									<path class="st8" d="M693.5,363.7l-9.2-9.2c-0.2-0.2-0.4-0.3-0.6-0.4c-0.2-0.1-0.5-0.1-0.7-0.1h-18.4c-1,0-1.9,0.4-2.6,1.1
										s-1.1,1.6-1.1,2.6v3.7h-3.7c-1,0-1.9,0.4-2.6,1.1c-0.7,0.7-1.1,1.6-1.1,2.6v33.1c0,1,0.4,1.9,1.1,2.6
										c0.7,0.7,1.6,1.1,2.6,1.1H683c1,0,1.9-0.4,2.6-1.1c0.7-0.7,1.1-1.6,1.1-2.6v-3.7h3.7c1,0,1.9-0.4,2.6-1.1
										c0.7-0.7,1.1-1.6,1.1-2.6V365c0-0.2,0-0.5-0.1-0.7C693.8,364,693.7,363.8,693.5,363.7z M683,398.1h-25.7V365h17.6l8.1,8.1
										v19.4c0,0,0,0,0,0c0,0,0,0,0,0V398.1z M690.4,390.7h-3.7v-18.4c0-0.2,0-0.5-0.1-0.7c-0.1-0.2-0.2-0.4-0.4-0.6l-9.2-9.2
										c-0.2-0.2-0.4-0.3-0.6-0.4c-0.2-0.1-0.5-0.1-0.7-0.1h-11v-3.7h17.6l8.1,8.1V390.7z M677.5,383.3c0,0.5-0.2,1-0.5,1.3
										c-0.3,0.3-0.8,0.5-1.3,0.5h-11c-0.5,0-1-0.2-1.3-0.5c-0.3-0.3-0.5-0.8-0.5-1.3c0-0.5,0.2-1,0.5-1.3
										c0.3-0.3,0.8-0.5,1.3-0.5h11c0.5,0,1,0.2,1.3,0.5C677.3,382.4,677.5,382.9,677.5,383.3z M677.5,390.7c0,0.5-0.2,1-0.5,1.3
										c-0.3,0.3-0.8,0.5-1.3,0.5h-11c-0.5,0-1-0.2-1.3-0.5c-0.3-0.3-0.5-0.8-0.5-1.3c0-0.5,0.2-1,0.5-1.3
										c0.3-0.3,0.8-0.5,1.3-0.5h11c0.5,0,1,0.2,1.3,0.5C677.3,389.7,677.5,390.2,677.5,390.7z"/>
								</g>
							</g>
						</g>
					</g>
				</g>
			</g>
		</g>
	</g>
</g>
</svg>
