<?xml version="1.0" encoding="utf-8"?>
<!-- Generator: Adobe Illustrator 27.8.1, SVG Export Plug-In . SVG Version: 6.00 Build 0)  -->
<svg version="1.1" id="Layer_1" xmlns="http://www.w3.org/2000/svg" xmlns:xlink="http://www.w3.org/1999/xlink" x="0px" y="0px"
	 viewBox="0 0 1366 768" style="enable-background:new 0 0 1366 768;" xml:space="preserve">
<style type="text/css">
	.st0{clip-path:url(#SVGID_00000016766008245730933240000008664853532138607755_);}
	.st1{clip-path:url(#SVGID_00000132063895802626415830000001371051595702240416_);}
	.st2{clip-path:url(#SVGID_00000047041526076423921040000016075753468730698425_);}
	.st3{clip-path:url(#SVGID_00000144338963179660386620000004930657737620162713_);}
	.st4{fill-rule:evenodd;clip-rule:evenodd;fill:#3C414D;}
	.st5{fill:#FFFFFF;}
	.st6{fill:none;stroke:#E6E8EC;stroke-width:2.6513;}
	.st7{clip-path:url(#SVGID_00000160180870258475261860000013009646461726917262_);}
	.st8{clip-path:url(#SVGID_00000163038740556130042140000014710851490116425633_);}
	.st9{clip-path:url(#SVGID_00000119815503887767452150000004839345988104423856_);}
	.st10{clip-path:url(#SVGID_00000080191034036675047350000006586287605412589958_);}
	.st11{fill:#EFF1F3;}
	.st12{fill:none;stroke:#E6E8EC;stroke-width:2.5565;}
	.st13{fill:#FFFFFF;filter:url(#Adobe_OpacityMaskFilter);}
	.st14{mask:url(#mask0_70_109_00000089562094995363776690000001229578533733981608_);}
	.st15{fill:#979DA9;}
	.st16{clip-path:url(#SVGID_00000079446763052447311120000012212395709793147803_);}
	.st17{clip-path:url(#SVGID_00000055669441446252708700000010678359045458762173_);}
	.st18{clip-path:url(#SVGID_00000035517147952574076380000000490404665445800848_);}
	.st19{clip-path:url(#SVGID_00000146471174007658751680000008251328632940021382_);}
	.st20{clip-path:url(#SVGID_00000173857566240939463460000000229881575330331292_);}
	.st21{clip-path:url(#SVGID_00000016773537208130357000000012986545777635863939_);}
	.st22{clip-path:url(#SVGID_00000083786677342713853410000003716719352365568670_);}
	.st23{clip-path:url(#SVGID_00000152229350438983939420000008761686568244541058_);}
	.st24{fill:#0382F7;}
	.st25{fill:#E9DDCE;}
	.st26{fill:#F6F5F0;}
	.st27{fill:none;stroke:#EFEBD9;stroke-width:5.3026;}
	.st28{fill:none;}
</style>
<g>
	<g>
		<defs>
			<rect id="SVGID_1_" x="477.2" y="288.8" width="193" height="193"/>
		</defs>
		<clipPath id="SVGID_00000123420472814298828840000016897407640751353485_">
			<use xlink:href="#SVGID_1_"  style="overflow:visible;"/>
		</clipPath>
		<g style="clip-path:url(#SVGID_00000123420472814298828840000016897407640751353485_);">
			<g>
				<defs>
					<rect id="SVGID_00000095321185035016739630000001720699131189926556_" x="477.2" y="288.8" width="193" height="193"/>
				</defs>
				<clipPath id="SVGID_00000159458101676429404560000003698556107105099904_">
					<use xlink:href="#SVGID_00000095321185035016739630000001720699131189926556_"  style="overflow:visible;"/>
				</clipPath>
				<g style="clip-path:url(#SVGID_00000159458101676429404560000003698556107105099904_);">
					<g>
						<defs>
							<rect id="SVGID_00000075857860067045394440000000659799331760033192_" x="477.2" y="288.8" width="193" height="193"/>
						</defs>
						<clipPath id="SVGID_00000139974192150948811420000017424703118692751294_">
							<use xlink:href="#SVGID_00000075857860067045394440000000659799331760033192_"  style="overflow:visible;"/>
						</clipPath>
						<g style="clip-path:url(#SVGID_00000139974192150948811420000017424703118692751294_);">
							<g>
								<defs>
									<rect id="SVGID_00000080205679371939511070000017520550571154410634_" x="477.2" y="287.6" width="193" height="195.3"/>
								</defs>
								<clipPath id="SVGID_00000048463219862481712680000014314125680230602898_">
									<use xlink:href="#SVGID_00000080205679371939511070000017520550571154410634_"  style="overflow:visible;"/>
								</clipPath>
								<g style="clip-path:url(#SVGID_00000048463219862481712680000014314125680230602898_);">
									<path class="st4" d="M566.9,384.5c-1.1,0.1-2.2,0.2-3.3,0.2h-3.6v1.8h3.6c1.1,0,2.2,0.1,3.3,0.2l0.1-0.4c0.1,0,0.1,0,0.2,0
										l-0.1-0.6l0.1-0.6c-0.1,0-0.1,0-0.2,0L566.9,384.5z M579,379.4c-1.8,1.3-3.7,2.5-5.8,3.3l0.7,1.6c2.2-0.9,4.3-2.1,6.2-3.6
										L579,379.4z M587.1,369c-0.9,2.1-2,4-3.3,5.8l1.4,1.1c1.4-1.9,2.6-3.9,3.6-6.2L587.1,369z M589,359.2
										c0,1.1-0.1,2.2-0.2,3.3l1.7,0.2c0.2-1.2,0.2-2.3,0.2-3.6v-3.6H589V359.2z M589,341.3v7.2h1.8v-7.2H589z M589,327v7.2h1.8
										V327H589z M589,316.3v3.6h1.8v-3.6c0-1.1,0.1-2.2,0.2-3.3l-1.7-0.2C589.1,313.9,589,315.1,589,316.3z M594.6,299.7
										c-1.4,1.9-2.6,3.9-3.6,6.2l1.6,0.7c0.9-2.1,2-4,3.3-5.8L594.6,299.7z M605.8,291.1c-2.2,0.9-4.3,2.1-6.2,3.6l1.1,1.4
										c1.8-1.3,3.7-2.5,5.8-3.3L605.8,291.1z M616.2,289.1c-1.2,0-2.4,0.1-3.6,0.2l0.2,1.7c1.1-0.1,2.2-0.2,3.3-0.2h3.4v-1.8
										H616.2z M670.2,289.1h-3.4v1.8h3.4V289.1z M660.1,289.1h-6.7v1.8h6.7V289.1z M646.6,289.1h-6.7v1.8h6.7V289.1z
										 M633.1,289.1h-6.7v1.8h6.7V289.1z M552.7,386.4h-7.2v-1.8h7.2V386.4z M538.3,386.4h-7.2v-1.8h7.2V386.4z M523.9,386.4
										h-7.2v-1.8h7.2V386.4z M509.6,386.4h-7.2v-1.8h7.2V386.4z M495.2,386.4H488v-1.8h7.2V386.4z M480.8,386.4h-3.6v-1.8h3.6
										V386.4z M579,391.7c-1.8-1.3-3.7-2.5-5.8-3.3l0.7-1.6c2.2,0.9,4.3,2.1,6.2,3.6L579,391.7z M587.1,402.2
										c-0.9-2.1-2-4-3.3-5.8l1.4-1.1c1.4,1.9,2.6,3.9,3.6,6.2L587.1,402.2z M589,411.9c0-1.1-0.1-2.2-0.2-3.3l1.7-0.2
										c0.2,1.2,0.2,2.3,0.2,3.6v3.6H589V411.9z M589,429.8v-7.2h1.8v7.2H589z M589,444.1V437h1.8v7.2H589z M589,454.9v-3.6h1.8
										v3.6c0,1.1,0.1,2.2,0.2,3.3l-1.7,0.2C589.1,457.3,589,456.1,589,454.9z M594.6,471.4c-1.4-1.9-2.6-3.9-3.6-6.2l1.6-0.7
										c0.9,2.1,2,4,3.3,5.8L594.6,471.4z M605.8,480c-2.2-0.9-4.3-2.1-6.2-3.6l1.1-1.4c1.8,1.3,3.7,2.5,5.8,3.3L605.8,480z
										 M616.2,482.1c-1.2,0-2.4-0.1-3.6-0.2l0.2-1.7c1.1,0.1,2.2,0.2,3.3,0.2h3.4v1.8H616.2z M670.2,482.1h-3.4v-1.8h3.4V482.1z
										 M660.1,482.1h-6.7v-1.8h6.7V482.1z M646.6,482.1h-6.7v-1.8h6.7V482.1z M633.1,482.1h-6.7v-1.8h6.7V482.1z"/>
								</g>
							</g>
						</g>
					</g>
				</g>
			</g>
		</g>
	</g>
	<path class="st5" d="M711.3,138.1h301.6c11,0,19.9,8.9,19.9,19.9v194.2c0,11-8.9,19.9-19.9,19.9H711.3c-11,0-19.9-8.9-19.9-19.9
		V158C691.4,147,700.3,138.1,711.3,138.1z"/>
	<path class="st6" d="M711.3,138.1h301.6c11,0,19.9,8.9,19.9,19.9v194.2c0,11-8.9,19.9-19.9,19.9H711.3c-11,0-19.9-8.9-19.9-19.9
		V158C691.4,147,700.3,138.1,711.3,138.1z"/>
	<g>
		<defs>
			<rect id="SVGID_00000077292873090509547210000003824678614085753790_" x="806.1" y="165.3" width="103.4" height="103.4"/>
		</defs>
		<clipPath id="SVGID_00000170995001071646563660000017090144287628879248_">
			<use xlink:href="#SVGID_00000077292873090509547210000003824678614085753790_"  style="overflow:visible;"/>
		</clipPath>
		<g style="clip-path:url(#SVGID_00000170995001071646563660000017090144287628879248_);">
			<g>
				<defs>
					<rect id="SVGID_00000103255857890270555990000002835835334835006623_" x="806.1" y="165.3" width="103.4" height="103.4"/>
				</defs>
				<clipPath id="SVGID_00000013915239177242436610000015590705349418967688_">
					<use xlink:href="#SVGID_00000103255857890270555990000002835835334835006623_"  style="overflow:visible;"/>
				</clipPath>
				<g style="clip-path:url(#SVGID_00000013915239177242436610000015590705349418967688_);">
					<g>
						<defs>
							<rect id="SVGID_00000093179126456219707210000001355211966759605915_" x="806.1" y="165.3" width="103.4" height="103.4"/>
						</defs>
						<clipPath id="SVGID_00000063634589561121676420000011514222235314662279_">
							<use xlink:href="#SVGID_00000093179126456219707210000001355211966759605915_"  style="overflow:visible;"/>
						</clipPath>
						<g style="clip-path:url(#SVGID_00000063634589561121676420000011514222235314662279_);">
							<g>
								<defs>
									<rect id="SVGID_00000139273123841393698520000002109921175333903013_" x="806.1" y="165.3" width="103.4" height="103.4"/>
								</defs>
								<clipPath id="SVGID_00000100346781833119962800000003861541544128388235_">
									<use xlink:href="#SVGID_00000139273123841393698520000002109921175333903013_"  style="overflow:visible;"/>
								</clipPath>
								<g style="clip-path:url(#SVGID_00000100346781833119962800000003861541544128388235_);">
									<path class="st11" d="M898.1,166.5h-81.8c-4.9,0-8.9,4-8.9,8.9v81.8c0,4.9,4,8.9,8.9,8.9h81.8c4.9,0,8.9-4,8.9-8.9v-81.8
										C907,170.6,903,166.5,898.1,166.5z"/>
									<path class="st12" d="M898.1,166.5h-81.8c-4.9,0-8.9,4-8.9,8.9v81.8c0,4.9,4,8.9,8.9,8.9h81.8c4.9,0,8.9-4,8.9-8.9v-81.8
										C907,170.6,903,166.5,898.1,166.5z"/>
									<defs>
										<filter id="Adobe_OpacityMaskFilter" filterUnits="userSpaceOnUse" x="834.2" y="191.5" width="46" height="49.9">
											<feColorMatrix  type="matrix" values="1 0 0 0 0  0 1 0 0 0  0 0 1 0 0  0 0 0 1 0"/>
										</filter>
									</defs>
									
										<mask maskUnits="userSpaceOnUse" x="834.2" y="191.5" width="46" height="49.9" id="mask0_70_109_00000089562094995363776690000001229578533733981608_">
										<path class="st13" d="M887.9,185.7h-61.4v61.4h61.4V185.7z"/>
									</mask>
									<g class="st14">
										<path class="st15" d="M857.2,191.5c-12.9,0-23,5.9-23,13.4v23c0,7.5,10.1,13.4,23,13.4c12.9,0,23-5.9,23-13.4v-23
											C880.2,197.4,870.1,191.5,857.2,191.5z M876.4,216.4c0,2.3-1.9,4.7-5.2,6.5c-3.7,2-8.7,3.1-14,3.1c-5.3,0-10.3-1.1-14-3.1
											c-3.3-1.8-5.2-4.1-5.2-6.5v-4c4.1,3.6,11.1,5.9,19.2,5.9c8.1,0,15.1-2.3,19.2-5.9V216.4z M843.2,198.4
											c3.7-2,8.7-3.1,14-3.1c5.3,0,10.3,1.1,14,3.1c3.3,1.8,5.2,4.1,5.2,6.5c0,2.3-1.9,4.7-5.2,6.5c-3.7,2-8.7,3.1-14,3.1
											c-5.3,0-10.3-1.1-14-3.1c-3.3-1.8-5.2-4.1-5.2-6.5C838,202.6,839.9,200.2,843.2,198.4z M871.2,234.4
											c-3.7,2-8.7,3.1-14,3.1c-5.3,0-10.3-1.1-14-3.1c-3.3-1.8-5.2-4.1-5.2-6.5v-4c4.1,3.6,11.1,5.9,19.2,5.9
											c8.1,0,15.1-2.3,19.2-5.9v4C876.4,230.2,874.5,232.6,871.2,234.4z"/>
									</g>
								</g>
							</g>
						</g>
					</g>
				</g>
			</g>
		</g>
	</g>
	<path d="M734.9,310.6c-0.1-1.2-0.7-2.2-1.7-2.8c-1-0.7-2.3-1-3.8-1c-1.1,0-2,0.2-2.8,0.5c-0.8,0.3-1.4,0.8-1.9,1.4
		c-0.4,0.6-0.7,1.3-0.7,2.1c0,0.7,0.2,1.2,0.5,1.7c0.3,0.5,0.7,0.8,1.2,1.2c0.5,0.3,1,0.6,1.6,0.8c0.5,0.2,1,0.3,1.5,0.5l2.5,0.7
		c0.6,0.2,1.3,0.4,2.1,0.7c0.8,0.3,1.5,0.7,2.3,1.2c0.7,0.5,1.3,1.1,1.8,1.9c0.5,0.8,0.7,1.8,0.7,2.9c0,1.3-0.3,2.5-1,3.6
		c-0.7,1.1-1.7,1.9-3,2.5c-1.3,0.6-2.9,0.9-4.8,0.9c-1.8,0-3.3-0.3-4.6-0.8c-1.3-0.6-2.3-1.4-3-2.4c-0.7-1-1.1-2.2-1.2-3.5h3.1
		c0.1,0.9,0.4,1.7,0.9,2.3c0.6,0.6,1.2,1,2.1,1.3c0.8,0.3,1.8,0.4,2.7,0.4c1.1,0,2.1-0.2,3-0.5c0.9-0.4,1.6-0.9,2.1-1.6
		c0.5-0.7,0.8-1.5,0.8-2.3c0-0.8-0.2-1.5-0.7-2c-0.5-0.5-1.1-0.9-1.8-1.2c-0.7-0.3-1.5-0.6-2.4-0.8l-3-0.9c-1.9-0.5-3.4-1.3-4.5-2.4
		c-1.1-1-1.7-2.4-1.7-4c0-1.4,0.4-2.6,1.1-3.6c0.7-1,1.8-1.8,3-2.4c1.3-0.6,2.7-0.9,4.2-0.9c1.6,0,3,0.3,4.2,0.9
		c1.2,0.6,2.2,1.3,2.9,2.3c0.7,1,1.1,2.1,1.1,3.3H734.9z M750.3,329.4c-1.8,0-3.3-0.4-4.6-1.2c-1.3-0.8-2.3-1.9-3-3.3
		c-0.7-1.4-1-3.1-1-5c0-1.9,0.3-3.5,1-5c0.7-1.4,1.7-2.6,2.9-3.4c1.2-0.8,2.7-1.2,4.4-1.2c1,0,1.9,0.2,2.8,0.5
		c0.9,0.3,1.8,0.8,2.5,1.6c0.8,0.7,1.4,1.7,1.8,2.8c0.5,1.2,0.7,2.6,0.7,4.3v1.2h-14.2v-2.4h11.3c0-1-0.2-2-0.6-2.8
		c-0.4-0.8-1-1.5-1.7-1.9c-0.8-0.5-1.6-0.7-2.7-0.7c-1.1,0-2.1,0.3-2.9,0.8c-0.8,0.6-1.4,1.3-1.9,2.2c-0.4,0.9-0.7,1.8-0.7,2.8v1.6
		c0,1.4,0.2,2.6,0.7,3.5c0.5,1,1.2,1.7,2,2.2c0.9,0.5,1.9,0.7,3,0.7c0.7,0,1.4-0.1,2-0.3c0.6-0.2,1.1-0.5,1.6-1c0.4-0.4,0.8-1,1-1.6
		l2.7,0.8c-0.3,0.9-0.8,1.7-1.4,2.4c-0.7,0.7-1.5,1.2-2.5,1.6C752.7,329.2,751.6,329.4,750.3,329.4z M769.7,329.4
		c-1.7,0-3.2-0.4-4.4-1.2c-1.2-0.8-2.2-1.9-2.9-3.4c-0.7-1.4-1-3.1-1-4.9c0-1.9,0.3-3.5,1-4.9c0.7-1.4,1.7-2.6,2.9-3.4
		c1.2-0.8,2.7-1.2,4.4-1.2c1.3,0,2.5,0.2,3.5,0.7c1,0.5,1.9,1.1,2.5,2c0.7,0.9,1.1,1.9,1.2,3h-2.8c-0.2-0.8-0.7-1.6-1.4-2.2
		c-0.7-0.7-1.7-1-3-1c-1.1,0-2.1,0.3-2.9,0.9c-0.8,0.6-1.5,1.4-1.9,2.4c-0.5,1-0.7,2.2-0.7,3.6c0,1.4,0.2,2.7,0.7,3.7
		c0.5,1.1,1.1,1.9,1.9,2.5c0.8,0.6,1.8,0.9,2.9,0.9c0.7,0,1.4-0.1,2-0.4c0.6-0.3,1.1-0.6,1.5-1.1c0.4-0.5,0.7-1.1,0.9-1.7h2.8
		c-0.2,1.1-0.6,2.1-1.2,2.9c-0.6,0.9-1.4,1.5-2.5,2.1C772.2,329.1,771,329.4,769.7,329.4z M792.6,321.5v-10.9h2.8V329h-2.8v-3.1
		h-0.2c-0.4,0.9-1.1,1.7-2,2.4c-0.9,0.6-2.1,1-3.4,1c-1.1,0-2.2-0.3-3.1-0.8c-0.9-0.5-1.6-1.3-2.1-2.3c-0.5-1-0.8-2.3-0.8-3.9v-11.7
		h2.8v11.5c0,1.3,0.4,2.4,1.1,3.2c0.8,0.8,1.7,1.2,2.9,1.2c0.7,0,1.4-0.2,2.1-0.5c0.7-0.4,1.3-0.9,1.8-1.6
		C792.3,323.6,792.6,322.6,792.6,321.5z M800.6,329v-18.4h2.7v2.8h0.2c0.3-0.9,0.9-1.6,1.8-2.2c0.9-0.6,1.9-0.9,3-0.9
		c0.2,0,0.5,0,0.8,0c0.3,0,0.5,0,0.7,0v2.9c-0.1,0-0.3-0.1-0.7-0.1c-0.3-0.1-0.7-0.1-1.1-0.1c-0.9,0-1.7,0.2-2.4,0.6
		c-0.7,0.4-1.2,0.9-1.7,1.5c-0.4,0.6-0.6,1.4-0.6,2.2V329H800.6z M820.3,329.4c-1.8,0-3.3-0.4-4.6-1.2c-1.3-0.8-2.3-1.9-3-3.3
		c-0.7-1.4-1-3.1-1-5c0-1.9,0.3-3.5,1-5c0.7-1.4,1.7-2.6,2.9-3.4c1.2-0.8,2.7-1.2,4.4-1.2c1,0,1.9,0.2,2.8,0.5
		c0.9,0.3,1.8,0.8,2.5,1.6c0.8,0.7,1.4,1.7,1.8,2.8c0.5,1.2,0.7,2.6,0.7,4.3v1.2h-14.2v-2.4H825c0-1-0.2-2-0.6-2.8
		c-0.4-0.8-1-1.5-1.7-1.9c-0.7-0.5-1.6-0.7-2.7-0.7c-1.1,0-2.1,0.3-2.9,0.8c-0.8,0.6-1.4,1.3-1.9,2.2c-0.4,0.9-0.7,1.8-0.7,2.8v1.6
		c0,1.4,0.2,2.6,0.7,3.5c0.5,1,1.2,1.7,2,2.2c0.9,0.5,1.9,0.7,3,0.7c0.7,0,1.4-0.1,2-0.3c0.6-0.2,1.1-0.5,1.6-1c0.4-0.4,0.8-1,1-1.6
		l2.7,0.8c-0.3,0.9-0.8,1.7-1.4,2.4c-0.7,0.7-1.5,1.2-2.5,1.6C822.6,329.2,821.5,329.4,820.3,329.4z M841.6,335.9v-25.3h2.7v2.9h0.3
		c0.2-0.3,0.5-0.7,0.9-1.2c0.4-0.5,0.9-0.9,1.6-1.3c0.7-0.4,1.7-0.6,2.8-0.6c1.5,0,2.9,0.4,4.1,1.2c1.2,0.8,2.1,1.9,2.8,3.3
		c0.7,1.4,1,3.1,1,5c0,1.9-0.3,3.6-1,5.1c-0.7,1.4-1.6,2.5-2.8,3.3c-1.2,0.8-2.5,1.2-4.1,1.2c-1.2,0-2.1-0.2-2.8-0.6
		c-0.7-0.4-1.3-0.8-1.6-1.3c-0.4-0.5-0.7-0.9-0.9-1.3h-0.2v9.7H841.6z M844.4,319.8c0,1.4,0.2,2.6,0.6,3.7c0.4,1.1,1,1.9,1.8,2.5
		c0.8,0.6,1.7,0.9,2.9,0.9c1.2,0,2.2-0.3,3-0.9c0.8-0.6,1.4-1.5,1.8-2.5c0.4-1.1,0.6-2.3,0.6-3.6c0-1.3-0.2-2.5-0.6-3.5
		c-0.4-1-1-1.9-1.8-2.5c-0.8-0.6-1.8-0.9-3-0.9c-1.1,0-2.1,0.3-2.9,0.9c-0.8,0.6-1.4,1.4-1.8,2.4
		C844.6,317.2,844.4,318.4,844.4,319.8z M867.6,329.4c-1.2,0-2.2-0.2-3.2-0.7c-0.9-0.4-1.7-1.1-2.3-1.9c-0.6-0.8-0.8-1.9-0.8-3.1
		c0-1.1,0.2-1.9,0.6-2.6c0.4-0.7,1-1.2,1.7-1.6c0.7-0.4,1.5-0.7,2.3-0.8c0.8-0.2,1.7-0.3,2.5-0.5c1.1-0.1,2-0.3,2.7-0.3
		c0.7-0.1,1.2-0.2,1.5-0.4c0.3-0.2,0.5-0.5,0.5-1v-0.1c0-1.2-0.3-2.1-1-2.8c-0.6-0.7-1.6-1-2.9-1c-1.3,0-2.4,0.3-3.2,0.9
		c-0.8,0.6-1.3,1.2-1.6,1.9l-2.7-1c0.5-1.1,1.1-2,1.9-2.6c0.8-0.6,1.7-1.1,2.6-1.3c1-0.3,1.9-0.4,2.8-0.4c0.6,0,1.3,0.1,2,0.2
		c0.8,0.1,1.5,0.4,2.2,0.8c0.7,0.4,1.3,1.1,1.8,1.9c0.5,0.9,0.7,2,0.7,3.5V329h-2.8v-2.5H873c-0.2,0.4-0.5,0.8-1,1.3
		c-0.4,0.5-1,0.8-1.8,1.2C869.5,329.3,868.6,329.4,867.6,329.4z M868,326.9c1.1,0,2.1-0.2,2.8-0.7c0.8-0.4,1.4-1,1.7-1.7
		c0.4-0.7,0.6-1.4,0.6-2.2v-2.6c-0.1,0.1-0.4,0.3-0.8,0.4c-0.4,0.1-0.9,0.2-1.4,0.3c-0.5,0.1-1,0.2-1.5,0.2
		c-0.5,0.1-0.9,0.1-1.2,0.1c-0.7,0.1-1.4,0.3-2.1,0.5c-0.6,0.2-1.1,0.5-1.5,0.9c-0.4,0.4-0.6,1-0.6,1.7c0,1,0.4,1.7,1.1,2.2
		C865.9,326.6,866.9,326.9,868,326.9z M882.3,335.9c-0.5,0-0.9,0-1.3-0.1c-0.4-0.1-0.6-0.1-0.8-0.2l0.7-2.5c0.7,0.2,1.3,0.2,1.8,0.2
		c0.5-0.1,1-0.3,1.4-0.7c0.4-0.4,0.8-1.1,1.1-2l0.5-1.4l-6.8-18.5h3.1l5.1,14.6h0.2l5.1-14.6h3.1l-7.8,21c-0.4,0.9-0.8,1.7-1.3,2.4
		c-0.5,0.6-1.1,1.1-1.8,1.4C883.9,335.7,883.1,335.9,882.3,335.9z M899.2,329v-18.4h2.7v2.9h0.2c0.4-1,1-1.7,1.9-2.3
		c0.9-0.6,1.9-0.8,3.1-0.8c1.2,0,2.2,0.3,3,0.8c0.8,0.5,1.4,1.3,1.9,2.3h0.2c0.5-0.9,1.2-1.7,2.1-2.3c0.9-0.6,2.1-0.8,3.4-0.8
		c1.6,0,3,0.5,4,1.5c1,1,1.6,2.6,1.6,4.8V329h-2.8v-12.3c0-1.4-0.4-2.3-1.1-2.9c-0.7-0.6-1.6-0.9-2.6-0.9c-1.3,0-2.3,0.4-3,1.2
		c-0.7,0.8-1.1,1.8-1.1,2.9v12h-2.9v-12.6c0-1-0.3-1.9-1-2.5c-0.7-0.6-1.6-1-2.6-1c-0.7,0-1.4,0.2-2.1,0.6c-0.6,0.4-1.1,0.9-1.5,1.6
		c-0.4,0.7-0.6,1.5-0.6,2.4V329H899.2z M936.2,329.4c-1.8,0-3.3-0.4-4.6-1.2c-1.3-0.8-2.3-1.9-3-3.3c-0.7-1.4-1-3.1-1-5
		c0-1.9,0.3-3.5,1-5c0.7-1.4,1.7-2.6,2.9-3.4c1.2-0.8,2.7-1.2,4.4-1.2c1,0,1.9,0.2,2.8,0.5c0.9,0.3,1.8,0.8,2.5,1.6
		c0.8,0.7,1.4,1.7,1.8,2.8c0.5,1.2,0.7,2.6,0.7,4.3v1.2h-14.2v-2.4h11.3c0-1-0.2-2-0.6-2.8c-0.4-0.8-1-1.5-1.7-1.9
		c-0.8-0.5-1.6-0.7-2.7-0.7c-1.1,0-2.1,0.3-2.9,0.8c-0.8,0.6-1.4,1.3-1.9,2.2c-0.4,0.9-0.7,1.8-0.7,2.8v1.6c0,1.4,0.2,2.6,0.7,3.5
		c0.5,1,1.2,1.7,2,2.2c0.9,0.5,1.9,0.7,3,0.7c0.7,0,1.4-0.1,2-0.3c0.6-0.2,1.1-0.5,1.6-1c0.4-0.4,0.8-1,1-1.6l2.7,0.8
		c-0.3,0.9-0.8,1.7-1.4,2.4c-0.7,0.7-1.5,1.2-2.5,1.6C938.5,329.2,937.4,329.4,936.2,329.4z M950.9,317.9v11h-2.8v-18.4h2.7v2.9h0.2
		c0.4-0.9,1.1-1.7,2-2.2c0.9-0.6,2-0.9,3.4-0.9c1.2,0,2.3,0.3,3.3,0.8c0.9,0.5,1.7,1.3,2.2,2.3c0.5,1,0.8,2.3,0.8,3.9V329h-2.8
		v-11.5c0-1.4-0.4-2.6-1.1-3.4c-0.8-0.8-1.8-1.2-3.1-1.2c-0.9,0-1.7,0.2-2.4,0.6c-0.7,0.4-1.3,1-1.7,1.7
		C951.1,316,950.9,316.9,950.9,317.9z M975.8,310.6v2.4h-9.5v-2.4H975.8z M969,306.2h2.8v17.5c0,0.8,0.1,1.4,0.3,1.8
		c0.2,0.4,0.5,0.7,0.9,0.8c0.4,0.1,0.8,0.2,1.2,0.2c0.3,0,0.6,0,0.8,0c0.2,0,0.4-0.1,0.5-0.1l0.6,2.5c-0.2,0.1-0.5,0.1-0.8,0.2
		c-0.3,0.1-0.8,0.1-1.3,0.1c-0.8,0-1.6-0.2-2.3-0.5c-0.8-0.3-1.4-0.9-1.9-1.6c-0.5-0.7-0.7-1.6-0.7-2.7V306.2z M992.7,314.7
		l-2.5,0.7c-0.2-0.4-0.4-0.8-0.7-1.2c-0.3-0.4-0.7-0.7-1.2-1c-0.5-0.3-1.2-0.4-2-0.4c-1.1,0-2.1,0.3-2.8,0.8
		c-0.7,0.5-1.1,1.2-1.1,1.9c0,0.7,0.3,1.3,0.8,1.7c0.5,0.4,1.3,0.7,2.4,1l2.7,0.7c1.6,0.4,2.9,1,3.7,1.8c0.8,0.8,1.2,1.9,1.2,3.1
		c0,1.1-0.3,2-0.9,2.8c-0.6,0.8-1.4,1.5-2.5,2c-1.1,0.5-2.3,0.7-3.8,0.7c-1.9,0-3.4-0.4-4.7-1.2c-1.2-0.8-2-2-2.3-3.6l2.7-0.7
		c0.3,1,0.7,1.7,1.4,2.2c0.7,0.5,1.7,0.7,2.8,0.7c1.3,0,2.4-0.3,3.1-0.8c0.8-0.6,1.2-1.2,1.2-2c0-0.6-0.2-1.2-0.7-1.6
		c-0.4-0.4-1.1-0.8-2.1-1l-3.1-0.7c-1.7-0.4-2.9-1-3.7-1.9c-0.8-0.8-1.2-1.9-1.2-3.2c0-1,0.3-2,0.9-2.7c0.6-0.8,1.4-1.4,2.4-1.9
		c1-0.5,2.2-0.7,3.5-0.7c1.8,0,3.2,0.4,4.3,1.2C991.5,312.4,992.2,313.4,992.7,314.7z"/>
	<path class="st5" d="M711.3,395.9h301.6c11,0,19.9,8.9,19.9,19.9V610c0,11-8.9,19.9-19.9,19.9H711.3c-11,0-19.9-8.9-19.9-19.9
		V415.8C691.4,404.8,700.3,395.9,711.3,395.9z"/>
	<path class="st6" d="M711.3,395.9h301.6c11,0,19.9,8.9,19.9,19.9V610c0,11-8.9,19.9-19.9,19.9H711.3c-11,0-19.9-8.9-19.9-19.9
		V415.8C691.4,404.8,700.3,395.9,711.3,395.9z"/>
	<g>
		<defs>
			<rect id="SVGID_00000161629285074731486320000010556349825283405744_" x="808.7" y="423.1" width="103.4" height="103.4"/>
		</defs>
		<clipPath id="SVGID_00000103977849569736763720000008223133593631236785_">
			<use xlink:href="#SVGID_00000161629285074731486320000010556349825283405744_"  style="overflow:visible;"/>
		</clipPath>
		<g style="clip-path:url(#SVGID_00000103977849569736763720000008223133593631236785_);">
			<g>
				<defs>
					<rect id="SVGID_00000052787971681046708920000005775432809123029655_" x="808.7" y="423.1" width="103.4" height="103.4"/>
				</defs>
				<clipPath id="SVGID_00000031896737200710699950000001925292461022273931_">
					<use xlink:href="#SVGID_00000052787971681046708920000005775432809123029655_"  style="overflow:visible;"/>
				</clipPath>
				<g style="clip-path:url(#SVGID_00000031896737200710699950000001925292461022273931_);">
					<g>
						<defs>
							<rect id="SVGID_00000181044823049680186270000009739687513304067488_" x="808.7" y="423.1" width="103.4" height="103.4"/>
						</defs>
						<clipPath id="SVGID_00000080188742254325719600000013091763021357713581_">
							<use xlink:href="#SVGID_00000181044823049680186270000009739687513304067488_"  style="overflow:visible;"/>
						</clipPath>
						<g style="clip-path:url(#SVGID_00000080188742254325719600000013091763021357713581_);">
							<g>
								<defs>
									<rect id="SVGID_00000114782413039557821990000016334038512830100613_" x="808.7" y="423.1" width="103.4" height="103.4"/>
								</defs>
								<clipPath id="SVGID_00000183947647079236318010000008877506785528055713_">
									<use xlink:href="#SVGID_00000114782413039557821990000016334038512830100613_"  style="overflow:visible;"/>
								</clipPath>
								<g style="clip-path:url(#SVGID_00000183947647079236318010000008877506785528055713_);">
									<path class="st11" d="M900.7,424.4h-81.8c-4.9,0-8.9,4-8.9,8.9v81.8c0,4.9,4,8.9,8.9,8.9h81.8c4.9,0,8.9-4,8.9-8.9v-81.8
										C909.7,428.4,905.7,424.4,900.7,424.4z"/>
									<path class="st12" d="M900.7,424.4h-81.8c-4.9,0-8.9,4-8.9,8.9v81.8c0,4.9,4,8.9,8.9,8.9h81.8c4.9,0,8.9-4,8.9-8.9v-81.8
										C909.7,428.4,905.7,424.4,900.7,424.4z"/>
								</g>
							</g>
							<path class="st15" d="M848,487c-1.5,1.3-3.1,1.8-4.8,1.7c-1.7-0.1-3.1-0.7-4.3-1.7c-1.2-1-2-2.3-2.4-3.9
								c-0.4-1.6-0.1-3.3,0.9-4.9l5.2-8.6c-1.1-0.8-1.9-1.8-2.6-3.1c-0.6-1.2-1-2.6-1-4c0-2.5,0.9-4.6,2.6-6.3
								c1.7-1.7,3.8-2.6,6.3-2.6c2.5,0,4.6,0.9,6.3,2.6c1.7,1.7,2.6,3.8,2.6,6.3c0,2.5-0.9,4.6-2.6,6.3s-3.8,2.6-6.3,2.6
								c-0.5,0-1,0-1.5-0.1c-0.5-0.1-1-0.2-1.4-0.4l-5.3,8.7c-0.6,1-0.8,2-0.6,3s0.7,1.8,1.5,2.4c0.7,0.6,1.6,1,2.7,1.1
								c1,0.1,2-0.3,3-1.1l26.4-22.4c1.5-1.3,3-1.9,4.7-1.7c1.6,0.1,3.1,0.7,4.3,1.7c1.2,1,2.1,2.3,2.5,3.9c0.4,1.6,0.1,3.3-0.9,5
								l-5.2,8.6c1.1,0.8,1.9,1.8,2.6,3c0.6,1.2,1,2.6,1,4c0,2.5-0.9,4.6-2.6,6.3c-1.7,1.7-3.8,2.6-6.3,2.6c-2.4,0-4.5-0.9-6.3-2.6
								s-2.6-3.8-2.6-6.3c0-2.4,0.9-4.5,2.6-6.3c1.7-1.7,3.8-2.6,6.2-2.6c0.5,0,1.1,0,1.6,0.1c0.5,0.1,1,0.2,1.4,0.4l5.3-8.8
								c0.6-1,0.8-2,0.6-3c-0.2-1-0.7-1.8-1.5-2.4c-0.7-0.6-1.6-1-2.7-1.1c-1-0.1-2,0.3-3,1.1L848,487z M848,468.7
								c1.7,0,3.2-0.6,4.4-1.8c1.2-1.2,1.8-2.7,1.8-4.4c0-1.7-0.6-3.2-1.8-4.4c-1.2-1.2-2.7-1.8-4.4-1.8c-1.7,0-3.2,0.6-4.4,1.8
								s-1.8,2.7-1.8,4.4s0.6,3.2,1.8,4.4C844.8,468.1,846.3,468.7,848,468.7z M872.6,493.4c1.7,0,3.2-0.6,4.4-1.8
								c1.2-1.2,1.8-2.7,1.8-4.4c0-1.7-0.6-3.2-1.8-4.4c-1.2-1.2-2.7-1.8-4.4-1.8c-1.7,0-3.2,0.6-4.4,1.8c-1.2,1.2-1.8,2.7-1.8,4.4
								c0,1.7,0.6,3.2,1.8,4.4C869.4,492.8,870.9,493.4,872.6,493.4z"/>
						</g>
					</g>
				</g>
			</g>
		</g>
	</g>
	<path d="M734.8,568.6c-0.1-1.2-0.7-2.1-1.7-2.8c-1-0.7-2.3-1-3.7-1c-1.1,0-2,0.2-2.8,0.5c-0.8,0.3-1.4,0.8-1.9,1.4
		c-0.4,0.6-0.7,1.3-0.7,2.1c0,0.6,0.2,1.2,0.5,1.7c0.3,0.5,0.7,0.8,1.2,1.2c0.5,0.3,1,0.5,1.5,0.7c0.5,0.2,1,0.3,1.5,0.5l2.5,0.7
		c0.6,0.2,1.3,0.4,2.1,0.7c0.8,0.3,1.5,0.7,2.2,1.2c0.7,0.5,1.3,1.1,1.8,1.9c0.5,0.8,0.7,1.7,0.7,2.9c0,1.3-0.3,2.5-1,3.6
		c-0.7,1.1-1.7,1.9-3,2.5c-1.3,0.6-2.9,0.9-4.8,0.9c-1.7,0-3.2-0.3-4.5-0.8c-1.3-0.6-2.3-1.3-3-2.3c-0.7-1-1.1-2.2-1.2-3.5h3
		c0.1,0.9,0.4,1.7,0.9,2.3c0.5,0.6,1.2,1,2.1,1.3c0.8,0.3,1.7,0.4,2.7,0.4c1.1,0,2.1-0.2,3-0.5c0.9-0.4,1.6-0.9,2.1-1.5
		c0.5-0.7,0.8-1.4,0.8-2.3c0-0.8-0.2-1.5-0.7-2c-0.5-0.5-1-0.9-1.8-1.2c-0.7-0.3-1.5-0.6-2.4-0.8l-3-0.9c-1.9-0.5-3.4-1.3-4.5-2.3
		c-1.1-1-1.7-2.3-1.7-4c0-1.4,0.4-2.5,1.1-3.6c0.7-1,1.7-1.8,3-2.4c1.3-0.6,2.7-0.9,4.2-0.9c1.6,0,3,0.3,4.2,0.8
		c1.2,0.6,2.2,1.3,2.9,2.3c0.7,1,1.1,2.1,1.1,3.3H734.8z M742.4,586.8v-18.2h2.7v2.8h0.2c0.4-1,1-1.7,1.8-2.3c0.8-0.5,1.9-0.8,3-0.8
		c1.2,0,2.2,0.3,3,0.8c0.8,0.5,1.4,1.3,1.9,2.3h0.2c0.5-0.9,1.2-1.7,2.1-2.2c0.9-0.6,2.1-0.8,3.4-0.8c1.6,0,3,0.5,4,1.5
		c1,1,1.6,2.6,1.6,4.7v12.2h-2.8v-12.2c0-1.3-0.4-2.3-1.1-2.9c-0.7-0.6-1.6-0.9-2.6-0.9c-1.3,0-2.3,0.4-3,1.2
		c-0.7,0.8-1.1,1.7-1.1,2.9v11.9H753v-12.5c0-1-0.3-1.9-1-2.5c-0.7-0.6-1.5-1-2.6-1c-0.7,0-1.4,0.2-2,0.6c-0.6,0.4-1.1,0.9-1.5,1.6
		c-0.4,0.7-0.6,1.5-0.6,2.4v11.4H742.4z M776.8,587.3c-1.2,0-2.2-0.2-3.1-0.7c-0.9-0.4-1.7-1.1-2.2-1.9c-0.6-0.8-0.8-1.9-0.8-3
		c0-1,0.2-1.9,0.6-2.5c0.4-0.7,1-1.2,1.6-1.5c0.7-0.4,1.4-0.6,2.3-0.8c0.8-0.2,1.7-0.3,2.5-0.5c1.1-0.1,2-0.2,2.7-0.3
		c0.7-0.1,1.2-0.2,1.5-0.4c0.3-0.2,0.5-0.5,0.5-0.9v-0.1c0-1.2-0.3-2.1-1-2.7c-0.6-0.6-1.6-1-2.9-1c-1.3,0-2.4,0.3-3.1,0.9
		c-0.8,0.6-1.3,1.2-1.6,1.9l-2.7-0.9c0.5-1.1,1.1-2,1.9-2.6c0.8-0.6,1.7-1.1,2.6-1.3c0.9-0.3,1.9-0.4,2.8-0.4c0.6,0,1.3,0.1,2,0.2
		c0.8,0.1,1.5,0.4,2.2,0.8c0.7,0.4,1.3,1.1,1.8,1.9c0.5,0.9,0.7,2,0.7,3.5v12h-2.8v-2.5h-0.1c-0.2,0.4-0.5,0.8-0.9,1.3
		c-0.4,0.5-1,0.8-1.8,1.2C778.8,587.1,777.9,587.3,776.8,587.3z M777.3,584.7c1.1,0,2-0.2,2.8-0.7c0.8-0.4,1.3-1,1.7-1.7
		c0.4-0.7,0.6-1.4,0.6-2.2v-2.6c-0.1,0.1-0.4,0.3-0.8,0.4c-0.4,0.1-0.9,0.2-1.4,0.3c-0.5,0.1-1,0.2-1.5,0.2
		c-0.5,0.1-0.9,0.1-1.2,0.1c-0.7,0.1-1.4,0.2-2,0.5c-0.6,0.2-1.1,0.5-1.5,0.9c-0.4,0.4-0.6,1-0.6,1.7c0,1,0.4,1.7,1.1,2.2
		C775.2,584.5,776.1,584.7,777.3,584.7z M790.3,586.8v-18.2h2.7v2.8h0.2c0.3-0.9,0.9-1.6,1.8-2.2c0.9-0.6,1.9-0.8,2.9-0.8
		c0.2,0,0.5,0,0.8,0c0.3,0,0.5,0,0.7,0v2.8c-0.1,0-0.3-0.1-0.7-0.1c-0.3-0.1-0.7-0.1-1.1-0.1c-0.9,0-1.7,0.2-2.4,0.6
		c-0.7,0.4-1.2,0.9-1.6,1.5c-0.4,0.6-0.6,1.4-0.6,2.2v11.5H790.3z M811.8,568.6v2.4h-9.4v-2.4H811.8z M805.1,564.2h2.8v17.4
		c0,0.8,0.1,1.4,0.3,1.8c0.2,0.4,0.5,0.6,0.9,0.8c0.4,0.1,0.8,0.2,1.2,0.2c0.3,0,0.6,0,0.8,0c0.2,0,0.4-0.1,0.5-0.1l0.6,2.5
		c-0.2,0.1-0.5,0.1-0.8,0.2c-0.3,0.1-0.8,0.1-1.3,0.1c-0.8,0-1.6-0.2-2.3-0.5c-0.8-0.3-1.4-0.9-1.9-1.6c-0.5-0.7-0.7-1.6-0.7-2.6
		V564.2z M830.8,587.3c-1.2,0-2.2-0.2-3.1-0.7c-0.9-0.4-1.7-1.1-2.2-1.9c-0.6-0.8-0.8-1.9-0.8-3c0-1,0.2-1.9,0.6-2.5
		c0.4-0.7,1-1.2,1.6-1.5c0.7-0.4,1.4-0.6,2.3-0.8c0.8-0.2,1.7-0.3,2.5-0.5c1.1-0.1,2-0.2,2.7-0.3c0.7-0.1,1.2-0.2,1.5-0.4
		c0.3-0.2,0.5-0.5,0.5-0.9v-0.1c0-1.2-0.3-2.1-1-2.7c-0.6-0.6-1.6-1-2.9-1c-1.3,0-2.4,0.3-3.1,0.9c-0.8,0.6-1.3,1.2-1.6,1.9
		l-2.7-0.9c0.5-1.1,1.1-2,1.9-2.6c0.8-0.6,1.7-1.1,2.6-1.3c0.9-0.3,1.9-0.4,2.8-0.4c0.6,0,1.3,0.1,2,0.2c0.8,0.1,1.5,0.4,2.2,0.8
		c0.7,0.4,1.3,1.1,1.8,1.9c0.5,0.9,0.7,2,0.7,3.5v12h-2.8v-2.5h-0.1c-0.2,0.4-0.5,0.8-0.9,1.3c-0.4,0.5-1,0.8-1.8,1.2
		C832.7,587.1,831.8,587.3,830.8,587.3z M831.2,584.7c1.1,0,2-0.2,2.8-0.7c0.8-0.4,1.3-1,1.7-1.7c0.4-0.7,0.6-1.4,0.6-2.2v-2.6
		c-0.1,0.1-0.4,0.3-0.8,0.4c-0.4,0.1-0.9,0.2-1.4,0.3c-0.5,0.1-1,0.2-1.5,0.2c-0.5,0.1-0.9,0.1-1.2,0.1c-0.7,0.1-1.4,0.2-2,0.5
		c-0.6,0.2-1.1,0.5-1.5,0.9c-0.4,0.4-0.6,1-0.6,1.7c0,1,0.4,1.7,1.1,2.2C829.1,584.5,830.1,584.7,831.2,584.7z M855.7,579.4v-10.8
		h2.8v18.2h-2.8v-3.1h-0.2c-0.4,0.9-1.1,1.7-2,2.4c-0.9,0.6-2,1-3.4,1c-1.1,0-2.2-0.2-3-0.7c-0.9-0.5-1.6-1.3-2.1-2.3
		c-0.5-1-0.8-2.3-0.8-3.9v-11.6h2.8V580c0,1.3,0.4,2.4,1.1,3.2c0.8,0.8,1.7,1.2,2.9,1.2c0.7,0,1.4-0.2,2.1-0.5
		c0.7-0.4,1.3-0.9,1.8-1.6C855.4,581.4,855.7,580.5,855.7,579.4z M871.6,568.6v2.4h-9.4v-2.4H871.6z M864.9,564.2h2.8v17.4
		c0,0.8,0.1,1.4,0.3,1.8c0.2,0.4,0.5,0.6,0.9,0.8c0.4,0.1,0.8,0.2,1.2,0.2c0.3,0,0.6,0,0.8,0c0.2,0,0.4-0.1,0.5-0.1l0.6,2.5
		c-0.2,0.1-0.5,0.1-0.8,0.2c-0.3,0.1-0.8,0.1-1.3,0.1c-0.8,0-1.6-0.2-2.3-0.5c-0.8-0.3-1.4-0.9-1.9-1.6c-0.5-0.7-0.7-1.6-0.7-2.6
		V564.2z M883,587.2c-1.6,0-3.1-0.4-4.3-1.2c-1.2-0.8-2.2-1.9-2.9-3.3c-0.7-1.4-1-3.1-1-4.9c0-1.9,0.3-3.6,1-5
		c0.7-1.4,1.7-2.5,2.9-3.3c1.2-0.8,2.7-1.2,4.3-1.2c1.6,0,3.1,0.4,4.3,1.2c1.2,0.8,2.2,1.9,2.9,3.3c0.7,1.4,1,3.1,1,5
		c0,1.9-0.3,3.5-1,4.9c-0.7,1.4-1.7,2.5-2.9,3.3C886.1,586.8,884.6,587.2,883,587.2z M883,584.7c1.2,0,2.3-0.3,3.1-1
		c0.8-0.6,1.4-1.5,1.8-2.5c0.4-1,0.6-2.2,0.6-3.4c0-1.2-0.2-2.4-0.6-3.4c-0.4-1-1-1.9-1.8-2.6c-0.8-0.6-1.8-1-3.1-1s-2.3,0.3-3.1,1
		c-0.8,0.6-1.4,1.5-1.8,2.6c-0.4,1.1-0.6,2.2-0.6,3.4c0,1.2,0.2,2.3,0.6,3.4c0.4,1,1,1.9,1.8,2.5C880.7,584.4,881.7,584.7,883,584.7
		z M895.5,586.8v-18.2h2.7v2.8h0.2c0.4-1,1-1.7,1.8-2.3c0.8-0.5,1.9-0.8,3-0.8c1.2,0,2.2,0.3,3,0.8c0.8,0.5,1.4,1.3,1.9,2.3h0.2
		c0.5-0.9,1.2-1.7,2.1-2.2c0.9-0.6,2.1-0.8,3.4-0.8c1.6,0,3,0.5,4,1.5c1,1,1.6,2.6,1.6,4.7v12.2h-2.8v-12.2c0-1.3-0.4-2.3-1.1-2.9
		c-0.7-0.6-1.6-0.9-2.6-0.9c-1.3,0-2.3,0.4-3,1.2c-0.7,0.8-1.1,1.7-1.1,2.9v11.9H906v-12.5c0-1-0.3-1.9-1-2.5c-0.7-0.6-1.5-1-2.6-1
		c-0.7,0-1.4,0.2-2,0.6c-0.6,0.4-1.1,0.9-1.5,1.6c-0.4,0.7-0.6,1.5-0.6,2.4v11.4H895.5z M929.9,587.3c-1.2,0-2.2-0.2-3.1-0.7
		c-0.9-0.4-1.7-1.1-2.2-1.9c-0.6-0.8-0.8-1.9-0.8-3c0-1,0.2-1.9,0.6-2.5c0.4-0.7,1-1.2,1.6-1.5c0.7-0.4,1.4-0.6,2.3-0.8
		c0.8-0.2,1.7-0.3,2.5-0.5c1.1-0.1,2-0.2,2.7-0.3c0.7-0.1,1.2-0.2,1.5-0.4c0.3-0.2,0.5-0.5,0.5-0.9v-0.1c0-1.2-0.3-2.1-1-2.7
		c-0.6-0.6-1.6-1-2.9-1c-1.3,0-2.4,0.3-3.1,0.9c-0.8,0.6-1.3,1.2-1.6,1.9l-2.7-0.9c0.5-1.1,1.1-2,1.9-2.6c0.8-0.6,1.7-1.1,2.6-1.3
		c0.9-0.3,1.9-0.4,2.8-0.4c0.6,0,1.3,0.1,2,0.2c0.8,0.1,1.5,0.4,2.2,0.8c0.7,0.4,1.3,1.1,1.8,1.9c0.5,0.9,0.7,2,0.7,3.5v12h-2.8
		v-2.5h-0.1c-0.2,0.4-0.5,0.8-0.9,1.3c-0.4,0.5-1,0.8-1.8,1.2C931.9,587.1,931,587.3,929.9,587.3z M930.3,584.7c1.1,0,2-0.2,2.8-0.7
		c0.8-0.4,1.3-1,1.7-1.7c0.4-0.7,0.6-1.4,0.6-2.2v-2.6c-0.1,0.1-0.4,0.3-0.8,0.4c-0.4,0.1-0.9,0.2-1.4,0.3c-0.5,0.1-1,0.2-1.5,0.2
		c-0.5,0.1-0.9,0.1-1.2,0.1c-0.7,0.1-1.4,0.2-2,0.5c-0.6,0.2-1.1,0.5-1.5,0.9c-0.4,0.4-0.6,1-0.6,1.7c0,1,0.4,1.7,1.1,2.2
		C928.3,584.5,929.2,584.7,930.3,584.7z M951.3,568.6v2.4h-9.4v-2.4H951.3z M944.6,564.2h2.8v17.4c0,0.8,0.1,1.4,0.3,1.8
		c0.2,0.4,0.5,0.6,0.9,0.8c0.4,0.1,0.8,0.2,1.2,0.2c0.3,0,0.6,0,0.8,0c0.2,0,0.4-0.1,0.5-0.1l0.6,2.5c-0.2,0.1-0.5,0.1-0.8,0.2
		c-0.3,0.1-0.8,0.1-1.3,0.1c-0.8,0-1.6-0.2-2.3-0.5c-0.8-0.3-1.4-0.9-1.9-1.6c-0.5-0.7-0.7-1.6-0.7-2.6V564.2z M955.5,586.8v-18.2
		h2.8v18.2H955.5z M956.9,565.6c-0.5,0-1-0.2-1.4-0.6c-0.4-0.4-0.6-0.8-0.6-1.3c0-0.5,0.2-1,0.6-1.3c0.4-0.4,0.9-0.6,1.4-0.6
		c0.5,0,1,0.2,1.4,0.6c0.4,0.4,0.6,0.8,0.6,1.3c0,0.5-0.2,1-0.6,1.3C957.9,565.4,957.5,565.6,956.9,565.6z M970.8,587.2
		c-1.6,0-3.1-0.4-4.3-1.2c-1.2-0.8-2.2-1.9-2.9-3.3c-0.7-1.4-1-3.1-1-4.9c0-1.9,0.3-3.6,1-5c0.7-1.4,1.7-2.5,2.9-3.3
		c1.2-0.8,2.7-1.2,4.3-1.2c1.6,0,3.1,0.4,4.3,1.2c1.2,0.8,2.2,1.9,2.9,3.3c0.7,1.4,1,3.1,1,5c0,1.9-0.3,3.5-1,4.9
		c-0.7,1.4-1.7,2.5-2.9,3.3C973.9,586.8,972.5,587.2,970.8,587.2z M970.8,584.7c1.2,0,2.3-0.3,3.1-1c0.8-0.6,1.4-1.5,1.8-2.5
		c0.4-1,0.6-2.2,0.6-3.4c0-1.2-0.2-2.4-0.6-3.4c-0.4-1-1-1.9-1.8-2.6c-0.8-0.6-1.8-1-3.1-1c-1.3,0-2.3,0.3-3.1,1
		c-0.8,0.6-1.4,1.5-1.8,2.6c-0.4,1.1-0.6,2.2-0.6,3.4c0,1.2,0.2,2.3,0.6,3.4c0.4,1,1,1.9,1.8,2.5
		C968.5,584.4,969.6,584.7,970.8,584.7z M986.2,575.9v11h-2.8v-18.2h2.7v2.8h0.2c0.4-0.9,1.1-1.7,1.9-2.2c0.9-0.6,2-0.9,3.4-0.9
		c1.2,0,2.3,0.3,3.2,0.8c0.9,0.5,1.6,1.3,2.2,2.3c0.5,1,0.8,2.3,0.8,3.8v11.6H995v-11.4c0-1.4-0.4-2.5-1.1-3.3
		c-0.7-0.8-1.8-1.2-3.1-1.2c-0.9,0-1.7,0.2-2.4,0.6c-0.7,0.4-1.2,1-1.6,1.7C986.4,573.9,986.2,574.8,986.2,575.9z"/>
	<g>
		<defs>
			<rect id="SVGID_00000034768971553317769910000000940778078535121564_" x="1033.2" y="288.8" width="193" height="193"/>
		</defs>
		<clipPath id="SVGID_00000085236607677047952410000013837676867409867682_">
			<use xlink:href="#SVGID_00000034768971553317769910000000940778078535121564_"  style="overflow:visible;"/>
		</clipPath>
		<g style="clip-path:url(#SVGID_00000085236607677047952410000013837676867409867682_);">
			<g>
				<defs>
					<rect id="SVGID_00000022556022934011208880000017897954363591778220_" x="1033.2" y="288.8" width="193" height="193"/>
				</defs>
				<clipPath id="SVGID_00000014628095736301183920000008343106942708889239_">
					<use xlink:href="#SVGID_00000022556022934011208880000017897954363591778220_"  style="overflow:visible;"/>
				</clipPath>
				<g style="clip-path:url(#SVGID_00000014628095736301183920000008343106942708889239_);">
					<g>
						<defs>
							<rect id="SVGID_00000112592968155071368260000008310166361326344888_" x="1033.2" y="288.8" width="193" height="193"/>
						</defs>
						<clipPath id="SVGID_00000050624907428960206630000006045948086461283209_">
							<use xlink:href="#SVGID_00000112592968155071368260000008310166361326344888_"  style="overflow:visible;"/>
						</clipPath>
						<g style="clip-path:url(#SVGID_00000050624907428960206630000006045948086461283209_);">
							<g>
								<defs>
									<rect id="SVGID_00000055691108972379601900000014842060532744300708_" x="1033.2" y="287.6" width="193" height="195.3"/>
								</defs>
								<clipPath id="SVGID_00000152945867654235869190000001927848724541199516_">
									<use xlink:href="#SVGID_00000055691108972379601900000014842060532744300708_"  style="overflow:visible;"/>
								</clipPath>
								<g style="clip-path:url(#SVGID_00000152945867654235869190000001927848724541199516_);">
									<path class="st4" d="M1136.5,386.1c1.1-0.1,2.2-0.2,3.3-0.2h3.6v-1.8h-3.6c-1.1,0-2.2-0.1-3.3-0.2l-0.1,0.4
										c-0.1,0-0.1,0-0.2,0l0.1,0.6l-0.1,0.6c0.1,0,0.1,0,0.2,0L1136.5,386.1z M1124.3,391.2c1.8-1.3,3.7-2.5,5.8-3.3l-0.7-1.6
										c-2.2,0.9-4.3,2.1-6.2,3.6L1124.3,391.2z M1116.3,401.6c0.9-2.1,2-4,3.3-5.8l-1.4-1.1c-1.4,1.9-2.6,3.9-3.6,6.2
										L1116.3,401.6z M1114.4,411.4c0-1.1,0.1-2.2,0.2-3.3l-1.7-0.2c-0.2,1.2-0.2,2.3-0.2,3.6v3.6h1.8V411.4z M1114.4,429.3v-7.2
										h-1.8v7.2H1114.4z M1114.4,443.6v-7.2h-1.8v7.2H1114.4z M1114.4,454.3v-3.6h-1.8v3.6c0,1.1-0.1,2.2-0.2,3.3l1.7,0.2
										C1114.3,456.7,1114.4,455.5,1114.4,454.3z M1108.7,470.9c1.4-1.9,2.6-3.9,3.6-6.2l-1.6-0.7c-0.9,2.1-2,4-3.3,5.8
										L1108.7,470.9z M1097.6,479.5c2.2-0.9,4.3-2.1,6.2-3.6l-1.1-1.4c-1.8,1.3-3.7,2.5-5.8,3.3L1097.6,479.5z M1087.1,481.5
										c1.2,0,2.4-0.1,3.6-0.2l-0.2-1.7c-1.1,0.1-2.2,0.2-3.3,0.2h-3.4v1.8H1087.1z M1033.2,481.5h3.4v-1.8h-3.4V481.5z
										 M1043.3,481.5h6.7v-1.8h-6.7V481.5z M1056.8,481.5h6.7v-1.8h-6.7V481.5z M1070.3,481.5h6.7v-1.8h-6.7V481.5z
										 M1150.6,384.2h7.2v1.8h-7.2V384.2z M1165,384.2h7.2v1.8h-7.2V384.2z M1179.4,384.2h7.2v1.8h-7.2V384.2z M1193.8,384.2h7.2
										v1.8h-7.2V384.2z M1208.2,384.2h7.2v1.8h-7.2V384.2z M1222.6,384.2h3.6v1.8h-3.6V384.2z M1124.3,378.9
										c1.8,1.3,3.7,2.5,5.8,3.3l-0.7,1.6c-2.2-0.9-4.3-2.1-6.2-3.6L1124.3,378.9z M1116.3,368.4c0.9,2.1,2,4,3.3,5.8l-1.4,1.1
										c-1.4-1.9-2.6-3.9-3.6-6.2L1116.3,368.4z M1114.4,358.7c0,1.1,0.1,2.2,0.2,3.3l-1.7,0.2c-0.2-1.2-0.2-2.3-0.2-3.6v-3.6h1.8
										V358.7z M1114.4,340.8v7.2h-1.8v-7.2H1114.4z M1114.4,326.5v7.2h-1.8v-7.2H1114.4z M1114.4,315.7v3.6h-1.8v-3.6
										c0-1.1-0.1-2.2-0.2-3.3l1.7-0.2C1114.3,313.3,1114.4,314.5,1114.4,315.7z M1108.7,299.2c1.4,1.9,2.6,3.9,3.6,6.2l-1.6,0.7
										c-0.9-2.1-2-4-3.3-5.8L1108.7,299.2z M1097.6,290.6c2.2,0.9,4.3,2.1,6.2,3.6l-1.1,1.4c-1.8-1.3-3.7-2.5-5.8-3.3
										L1097.6,290.6z M1087.1,288.5c1.2,0,2.4,0.1,3.6,0.2l-0.2,1.7c-1.1-0.1-2.2-0.2-3.3-0.2h-3.4v-1.8H1087.1z M1033.2,288.5
										h3.4v1.8h-3.4V288.5z M1043.3,288.5h6.7v1.8h-6.7V288.5z M1056.8,288.5h6.7v1.8h-6.7V288.5z M1070.3,288.5h6.7v1.8h-6.7
										V288.5z"/>
								</g>
							</g>
						</g>
					</g>
				</g>
			</g>
		</g>
	</g>
	<path class="st24" d="M318.8,229.7L318.8,229.7c87.6,0,158.5,71,158.5,158.5l0,0c0,87.6-71,158.5-158.5,158.5l0,0
		c-87.6,0-158.5-71-158.5-158.5l0,0C160.3,300.7,231.2,229.7,318.8,229.7z"/>
	<path class="st25" d="M318.8,221.2L318.8,221.2c92.2,0,167,74.8,167,167l0,0c0,92.2-74.8,167-167,167l0,0c-92.2,0-167-74.8-167-167
		l0,0C151.8,296,226.5,221.2,318.8,221.2z"/>
	<path class="st26" d="M318.8,232.4L318.8,232.4c86.1,0,155.9,69.8,155.9,155.9l0,0c0,86.1-69.8,155.9-155.9,155.9l0,0
		c-86.1,0-155.9-69.8-155.9-155.9l0,0C162.9,302.2,232.7,232.4,318.8,232.4z"/>
	<path class="st27" d="M318.8,232.4L318.8,232.4c86.1,0,155.9,69.8,155.9,155.9l0,0c0,86.1-69.8,155.9-155.9,155.9l0,0
		c-86.1,0-155.9-69.8-155.9-155.9l0,0C162.9,302.2,232.7,232.4,318.8,232.4z"/>
	<rect x="160.9" y="270" class="st28" width="315.5" height="230.7"/>
	
		<image style="overflow:visible;" width="1184" height="864" xlink:href="C:\Users\narde\Downloads\dadce78bfd81a2e81d9da438000205b936cb387c (1).png"  transform="matrix(0.3024 0 0 0.3024 139.7941 257.6197)">
	</image>
</g>
</svg>
